<svg viewBox="0 0 100 100" xmlns="http://www.w3.org/2000/svg">
  <defs>
    <linearGradient id="logoGradient" x1="0%" y1="0%" x2="100%" y2="100%">
      <stop offset="0%" stop-color="#6366f1" />
      <stop offset="100%" stop-color="#8b5cf6" />
    </linearGradient>
  </defs>
  
  <!-- Background -->
  <rect width="100" height="100" rx="20" fill="url(#logoGradient)" />
  
  <!-- Algorithm Flow -->
  <g fill="white" opacity="0.9">
    <circle cx="20" cy="25" r="3" />
    <circle cx="50" cy="25" r="3" />
    <circle cx="80" cy="25" r="3" />
    <rect x="26" y="24" width="18" height="2" />
    <rect x="56" y="24" width="18" height="2" />
  </g>
  
  <!-- Data Structure Tree -->
  <g fill="white" opacity="0.8">
    <!-- Root -->
    <circle cx="50" cy="45" r="4" />
    
    <!-- Level 1 -->
    <circle cx="30" cy="65" r="3.5" />
    <circle cx="70" cy="65" r="3.5" />
    
    <!-- Level 2 -->
    <circle cx="20" cy="80" r="3" />
    <circle cx="40" cy="80" r="3" />
    <circle cx="60" cy="80" r="3" />
    <circle cx="80" cy="80" r="3" />
    
    <!-- Connections -->
    <line x1="50" y1="49" x2="30" y2="61" stroke="white" stroke-width="2" opacity="0.6" />
    <line x1="50" y1="49" x2="70" y2="61" stroke="white" stroke-width="2" opacity="0.6" />
    <line x1="30" y1="69" x2="20" y2="77" stroke="white" stroke-width="1.5" opacity="0.6" />
    <line x1="30" y1="69" x2="40" y2="77" stroke="white" stroke-width="1.5" opacity="0.6" />
    <line x1="70" y1="69" x2="60" y2="77" stroke="white" stroke-width="1.5" opacity="0.6" />
    <line x1="70" y1="69" x2="80" y2="77" stroke="white" stroke-width="1.5" opacity="0.6" />
  </g>
</svg>
